<?xml version="1.0" encoding="utf-8"?>
<!-- Generator: Adobe Illustrator 27.0.0, SVG Export Plug-In . SVG Version: 6.00 Build 0)  -->
<svg version="1.1" id="Layer_1" xmlns="http://www.w3.org/2000/svg" xmlns:xlink="http://www.w3.org/1999/xlink" x="0px" y="0px"
	 viewBox="0 0 850.39 850.39" style="enable-background:new 0 0 850.39 850.39;" xml:space="preserve">
<style type="text/css">
	.st0{fill:#FFFFFF;stroke:#000000;stroke-miterlimit:10;}
	.st1{fill:#EF3B39;stroke:#ED2224;stroke-miterlimit:10;}
	.st2{fill:#90D3F4;}
	.st3{fill:#21B468;}
</style>
<rect x="24.62" y="22" class="st0" width="303.5" height="303.5"/>
<rect x="522.25" y="22" class="st0" width="303.5" height="303.5"/>
<rect x="51.25" y="22" class="st0" width="303.5" height="303.5"/>
<rect x="81.25" y="22" class="st0" width="303.5" height="303.5"/>
<rect x="112.25" y="22" class="st0" width="303.5" height="303.5"/>
<rect x="498.75" y="22" class="st0" width="303.5" height="303.5"/>
<rect x="24.62" y="362.57" class="st0" width="801.13" height="460.43"/>
<path class="st1" d="M264,173.75l149.67,25.03C401.49,271.61,337.84,325.5,264,325.5c-83.25,0-151.75-68.5-151.75-151.75
	c0-58.16,33.44-111.41,85.82-136.68L264,173.75z"/>
<g>
	<path class="st2" d="M37.2,387.63h31.64v82.15h49.39v26.84H37.2V387.63z"/>
	<path class="st2" d="M133.88,387.63h31.71v108.98h-31.71V387.63z"/>
	<path class="st2" d="M182.78,460.56l30.11-2.01c0.65,5.2,1.98,9.17,3.98,11.89c3.26,4.41,7.92,6.62,13.97,6.62
		c4.52,0,8-1.13,10.44-3.38c2.44-2.25,3.67-4.87,3.67-7.84c0-2.83-1.16-5.35-3.49-7.58c-2.33-2.23-7.73-4.34-16.21-6.32
		c-13.88-3.32-23.77-7.73-29.69-13.23c-5.96-5.5-8.94-12.51-8.94-21.04c0-5.6,1.52-10.89,4.58-15.87c3.05-4.98,7.64-8.9,13.76-11.75
		c6.12-2.85,14.52-4.27,25.18-4.27c13.09,0,23.06,2.59,29.93,7.77c6.87,5.18,10.96,13.42,12.26,24.72l-29.83,1.86
		c-0.79-4.91-2.46-8.48-5-10.71c-2.54-2.23-6.04-3.35-10.51-3.35c-3.68,0-6.45,0.83-8.31,2.49c-1.86,1.66-2.79,3.68-2.79,6.06
		c0,1.74,0.77,3.3,2.31,4.68c1.49,1.44,5.03,2.78,10.62,4.01c13.83,3.17,23.74,6.38,29.72,9.63c5.98,3.25,10.34,7.27,13.06,12.08
		c2.72,4.81,4.09,10.19,4.09,16.13c0,6.99-1.82,13.43-5.45,19.33c-3.63,5.9-8.71,10.37-15.23,13.42
		c-6.52,3.05-14.74,4.57-24.66,4.57c-17.42,0-29.48-3.57-36.19-10.71S183.66,471.56,182.78,460.56z"/>
	<path class="st2" d="M286.09,460.56l30.11-2.01c0.65,5.2,1.98,9.17,3.98,11.89c3.26,4.41,7.92,6.62,13.97,6.62
		c4.52,0,8-1.13,10.44-3.38c2.44-2.25,3.67-4.87,3.67-7.84c0-2.83-1.16-5.35-3.49-7.58c-2.33-2.23-7.73-4.34-16.21-6.32
		c-13.88-3.32-23.77-7.73-29.69-13.23c-5.96-5.5-8.94-12.51-8.94-21.04c0-5.6,1.52-10.89,4.58-15.87c3.05-4.98,7.64-8.9,13.76-11.75
		c6.12-2.85,14.52-4.27,25.18-4.27c13.09,0,23.06,2.59,29.93,7.77c6.87,5.18,10.96,13.42,12.26,24.72l-29.83,1.86
		c-0.79-4.91-2.46-8.48-5-10.71c-2.54-2.23-6.04-3.35-10.51-3.35c-3.68,0-6.45,0.83-8.31,2.49c-1.86,1.66-2.79,3.68-2.79,6.06
		c0,1.74,0.77,3.3,2.31,4.68c1.49,1.44,5.03,2.78,10.62,4.01c13.83,3.17,23.74,6.38,29.72,9.63c5.98,3.25,10.34,7.27,13.06,12.08
		c2.72,4.81,4.09,10.19,4.09,16.13c0,6.99-1.82,13.43-5.45,19.33c-3.63,5.9-8.71,10.37-15.23,13.42
		c-6.52,3.05-14.74,4.57-24.66,4.57c-17.42,0-29.48-3.57-36.19-10.71S286.98,471.56,286.09,460.56z"/>
	<path class="st2" d="M457.89,478.62h-35.93l-4.99,17.99h-32.31l38.49-108.98h34.52l38.48,108.98h-33.14L457.89,478.62z
		 M451.32,455.06l-11.3-39.18l-11.19,39.18H451.32z"/>
	<path class="st2" d="M500.69,460.56l30.11-2.01c0.65,5.2,1.98,9.17,3.98,11.89c3.26,4.41,7.92,6.62,13.97,6.62
		c4.52,0,8-1.13,10.44-3.38c2.45-2.25,3.67-4.87,3.67-7.84c0-2.83-1.16-5.35-3.49-7.58c-2.33-2.23-7.73-4.34-16.21-6.32
		c-13.88-3.32-23.77-7.73-29.69-13.23c-5.96-5.5-8.94-12.51-8.94-21.04c0-5.6,1.52-10.89,4.58-15.87c3.05-4.98,7.64-8.9,13.76-11.75
		c6.12-2.85,14.52-4.27,25.18-4.27c13.09,0,23.06,2.59,29.93,7.77c6.87,5.18,10.96,13.42,12.26,24.72l-29.83,1.86
		c-0.79-4.91-2.46-8.48-5-10.71c-2.54-2.23-6.04-3.35-10.51-3.35c-3.68,0-6.45,0.83-8.31,2.49c-1.86,1.66-2.79,3.68-2.79,6.06
		c0,1.74,0.77,3.3,2.31,4.68c1.49,1.44,5.03,2.78,10.62,4.01c13.83,3.17,23.74,6.38,29.72,9.63c5.98,3.25,10.34,7.27,13.06,12.08
		c2.72,4.81,4.09,10.19,4.09,16.13c0,6.99-1.82,13.43-5.45,19.33c-3.63,5.9-8.71,10.37-15.23,13.42
		c-6.52,3.05-14.74,4.57-24.66,4.57c-17.42,0-29.48-3.57-36.18-10.71C505.37,480.63,501.57,471.56,500.69,460.56z"/>
	<path class="st2" d="M609.67,387.63h78.24v23.42h-46.45v19.03h39.68v22h-39.68v44.53h-31.78V387.63z"/>
	<path class="st2" d="M767.91,478.62h-35.93l-4.99,17.99h-32.31l38.49-108.98h34.52l38.48,108.98h-33.14L767.91,478.62z
		 M761.34,455.06l-11.3-39.18l-11.19,39.18H761.34z"/>
</g>
<g>
	<path class="st3" d="M46.87,563.94H273.2v51.3h-75.94v156.46H122.8V615.25H46.87V563.94z"/>
	<path class="st3" d="M297.53,667.97c0-33.92,10.96-60.33,32.87-79.22c21.92-18.9,52.43-28.34,91.55-28.34
		c40.11,0,71.01,9.28,92.7,27.85c21.7,18.57,32.54,44.57,32.54,78.02c0,24.28-4.74,44.2-14.22,59.74
		c-9.48,15.54-23.18,27.64-41.09,36.28c-17.92,8.65-40.24,12.97-66.98,12.97c-27.18,0-49.67-3.73-67.47-11.2
		c-17.81-7.46-32.24-19.27-43.31-35.43C303.06,712.47,297.53,692.25,297.53,667.97z M371.98,668.25c0,20.97,4.52,36.05,13.56,45.21
		c9.04,9.17,21.34,13.75,36.9,13.75c16,0,28.38-4.49,37.15-13.46c8.77-8.97,13.15-25.08,13.15-48.33c0-19.56-4.58-33.85-13.72-42.87
		c-9.15-9.02-21.56-13.53-37.23-13.53c-15.01,0-27.07,4.58-36.16,13.75C376.53,631.92,371.98,647.09,371.98,668.25z"/>
	<path class="st3" d="M586.98,563.94h123.77c26.96,0,47.14,5.53,60.57,16.58c13.42,11.05,20.13,26.79,20.13,47.19
		c0,20.97-7.31,37.37-21.94,49.18c-14.63,11.81-36.96,17.72-66.98,17.72h-40.76v77.1h-74.79V563.94z M661.76,652.52h18.25
		c14.35,0,24.43-2.15,30.24-6.45c5.81-4.3,8.71-9.8,8.71-16.51c0-6.52-2.52-12.05-7.56-16.58c-5.04-4.54-14.52-6.8-28.44-6.8h-21.2
		V652.52z"/>
</g>
<path class="st1" d="M674,220.12l-71.39,71.93c-19.16-19.02-29.95-44.93-29.95-71.93c0-55.59,45.75-101.34,101.34-101.34
	s101.34,45.75,101.34,101.34c0,5.17-0.4,10.33-1.18,15.44L674,220.12z"/>
<g>
	<path d="M529.35,50.76l-12.36-2.92c1.03-5.19,3-9.17,5.92-11.94c2.92-2.77,7.06-4.15,12.4-4.15c6.14,0,10.58,1.51,13.32,4.53
		c2.74,3.02,4.11,6.82,4.11,11.39c0,2.68-0.56,5.11-1.67,7.28c-1.11,2.17-2.79,4.08-5.04,5.72c1.82,0.59,3.21,1.28,4.17,2.07
		c1.56,1.27,2.78,2.94,3.64,5.02c0.87,2.07,1.3,4.55,1.3,7.43c0,3.61-0.72,7.08-2.15,10.39c-1.43,3.32-3.5,5.87-6.19,7.66
		s-6.24,2.69-10.62,2.69c-4.28,0-7.66-0.66-10.13-1.99c-2.47-1.33-4.5-3.27-6.1-5.82c-1.59-2.55-2.82-5.76-3.67-9.63l13.06-2.29
		c0.51,3.47,1.31,5.88,2.39,7.22c1.08,1.34,2.46,2.01,4.12,2.01c1.75,0,3.21-0.85,4.38-2.54s1.75-3.95,1.75-6.77
		c0-2.88-0.56-5.11-1.68-6.69c-1.12-1.58-2.65-2.37-4.57-2.37c-1.03,0-2.44,0.34-4.24,1.02l0.67-12.32c0.73,0.14,1.29,0.21,1.7,0.21
		c1.71,0,3.14-0.72,4.29-2.16s1.72-3.15,1.72-5.12c0-1.89-0.43-3.4-1.28-4.53c-0.86-1.13-2.03-1.69-3.53-1.69
		c-1.54,0-2.79,0.61-3.75,1.84C530.34,45.53,529.69,47.68,529.35,50.76z"/>
	<path d="M561.8,77.6h13.96v17.27H561.8V77.6z"/>
	<path d="M612.03,31.75v63.12H598.8V53.51c-2.14,2.15-4.21,3.88-6.21,5.21s-4.51,2.6-7.53,3.81V48.39
		c4.45-1.89,7.91-4.16,10.37-6.82c2.46-2.65,4.39-5.93,5.78-9.82H612.03z"/>
	<path d="M648.71,83.27H624.9V69.09l23.81-37.34h11.39v38.14h5.91v13.38h-5.91v11.6h-11.39V83.27z M648.71,69.89V50.36l-12.58,19.53
		H648.71z"/>
	<path d="M671.43,46.57h35.05v13.76h-35.05V46.57z M671.43,67.4h35.05v13.67h-35.05V67.4z"/>
	<path d="M737.45,32.81h24.17c5.26,0,9.21,1.65,11.83,4.95s3.93,8,3.93,14.1c0,6.27-1.43,11.16-4.28,14.69
		c-2.86,3.53-7.22,5.29-13.08,5.29h-7.96v23.03h-14.6V32.81z M752.06,59.27h3.56c2.8,0,4.77-0.64,5.91-1.93
		c1.13-1.28,1.7-2.93,1.7-4.93c0-1.95-0.49-3.6-1.48-4.95c-0.98-1.35-2.83-2.03-5.55-2.03h-4.14V59.27z"/>
	<path d="M785.56,32.81h14.57v62.06h-14.57V32.81z"/>
</g>
</svg>
